<svg width="120" height="121" viewBox="0 0 120 121" fill="none" xmlns="http://www.w3.org/2000/svg">
<path d="M0 26.6C0 12.2406 11.6406 0.599976 26 0.599976H94C108.359 0.599976 120 12.2406 120 26.6V94.6C120 108.959 108.359 120.6 94 120.6H26C11.6406 120.6 0 108.959 0 94.6V26.6Z" fill="#3DA5F5"/>
<path fill-rule="evenodd" clip-rule="evenodd" d="M59.9937 38.2538C59.9937 37.9777 59.7699 37.7538 59.4937 37.7538H53.6536C53.3774 37.7538 53.1536 37.9777 53.1536 38.2538V54.8511C53.1536 55.1272 52.9297 55.3511 52.6536 55.3511H49.3462C49.0701 55.3511 48.8462 55.1272 48.8462 54.8511V38.5096C48.8462 38.2335 48.6223 38.0096 48.3462 38.0096H42.5061C42.2299 38.0096 42.0061 38.2335 42.0061 38.5096V82.4865C42.0061 82.7627 42.2299 82.9865 42.5061 82.9865H48.3462C48.6223 82.9865 48.8462 82.7627 48.8462 82.4865V62.9223C48.8462 62.6462 49.0701 62.4223 49.3462 62.4223H52.6536C52.9297 62.4223 53.1536 62.6462 53.1536 62.9223V83.2538C53.1536 83.53 53.3774 83.7538 53.6536 83.7538H59.4937C59.7699 83.7538 59.9937 83.53 59.9937 83.2538V38.2538ZM58.8223 38.9108C58.8223 38.9108 58.8223 38.9107 58.8223 38.9107C58.8223 38.9107 58.8222 38.9107 58.8222 38.9108V82.5969C58.8222 82.5969 58.8223 82.5969 58.8223 82.5969C58.8223 82.5969 58.8223 82.5969 58.8223 82.5969V38.9108ZM54.325 61.2654H48.1747C47.8986 61.2654 47.6747 61.4892 47.6747 61.7654V81.8296C47.6747 81.8296 47.6747 81.8296 47.6748 81.8296C47.6748 81.8296 47.6748 81.8296 47.6748 81.8296V61.7654C47.6748 61.4893 47.8986 61.2654 48.1748 61.2654L54.325 61.2654ZM47.6748 39.1665C47.6748 39.1665 47.6747 39.1665 47.6747 39.1665V56.508C47.6747 56.508 47.6747 56.508 47.6748 56.508C47.6748 56.508 47.6748 56.508 47.6748 56.508V39.1665C47.6748 39.1665 47.6748 39.1665 47.6748 39.1665ZM40.2112 78.2999C40.2112 78.2999 40.2112 78.2999 40.2112 78.2999C40.2112 78.2999 40.2112 78.2999 40.2112 78.2999V73.7983C40.2112 73.7983 40.2112 73.7983 40.2112 73.7983C40.2112 73.7983 40.2112 73.7983 40.2112 73.7983V78.2999ZM25.4276 40.3942C25.4276 40.3942 25.4276 40.3942 25.4276 40.3943V75.4864C25.4276 75.4864 25.4276 75.4864 25.4276 75.4864C25.4276 75.4864 25.4276 75.4864 25.4276 75.4864V40.3943C25.4276 40.3942 25.4276 40.3942 25.4276 40.3942ZM30.6904 74.3295H27.099C26.8229 74.3295 26.599 74.1057 26.599 73.8295V39.7373C26.599 39.4612 26.3752 39.2373 26.099 39.2373H20.1154C19.8392 39.2373 19.6154 39.4612 19.6154 39.7373V80.6449C19.6154 80.9211 19.8392 81.1449 20.1154 81.1449H30.1641C33.917 81.1449 38.04 80.5782 40.7069 79.3482L41.0921 79.1705C41.2692 79.0888 41.3826 78.9116 41.3826 78.7165V72.8096C41.3826 72.4538 41.0215 72.2119 40.6925 72.3472L39.7609 72.7303C37.4395 73.685 34.0563 74.3295 30.6904 74.3295ZM101.615 38.2538C101.615 37.9777 101.392 37.7538 101.115 37.7538H95.036C94.7599 37.7538 94.536 37.9777 94.536 38.2538V62.7804V66.719C94.536 66.9951 94.3122 67.219 94.036 67.219H72.1176C71.8415 67.219 71.6176 66.9951 71.6176 66.719V62.8593C71.6176 62.5832 71.3937 62.3593 71.1176 62.3593H65.1339C64.8578 62.3593 64.6339 62.5832 64.6339 62.8593V82.6911C64.6339 82.9673 64.8578 83.1911 65.1339 83.1911H101.115C101.392 83.1911 101.615 82.9673 101.615 82.6911V38.2538ZM76.9811 53.0601L77.0007 53.0295C77.0007 53.0295 77.0007 53.0295 77.0007 53.0295C77.0007 53.0295 77.0007 53.0295 77.0007 53.0295C76.1752 54.3239 75.1916 55.4957 74.0656 56.5229C75.1827 55.5038 76.1597 54.3424 76.9811 53.0601ZM78.8187 49.1417C78.8187 49.1417 78.8188 49.1417 78.8188 49.1417C79.2959 47.7967 79.6157 46.3255 79.7426 44.8045C79.7647 44.5402 79.9829 44.3332 80.2481 44.3332H89.8012C90.0773 44.3332 90.3012 44.1093 90.3012 43.8332V40.0362L90.3011 43.8332C90.3011 44.1093 90.0773 44.3331 89.8011 44.3331H80.248C79.9829 44.3331 79.7646 44.5402 79.7426 44.8044C79.6157 46.3255 79.2959 47.7967 78.8187 49.1417C78.8187 49.1417 78.8187 49.1417 78.8187 49.1417ZM92.9781 57.0034C93.1179 56.768 93.0424 56.4639 92.8087 56.3213L80.5416 48.8333C80.3482 48.7153 80.2591 48.4822 80.3187 48.2636C80.5242 47.5098 80.6845 46.7294 80.7953 45.9323C80.8303 45.6807 81.0432 45.4901 81.2973 45.4901H90.9726C91.2487 45.4901 91.4726 45.2662 91.4726 44.9901V39.3793C91.4726 39.1031 91.2487 38.8793 90.9726 38.8793H63.1724C62.8962 38.8793 62.6724 39.1031 62.6724 39.3793V44.9901C62.6724 45.2662 62.8962 45.4901 63.1724 45.4901H73.0536C73.3653 45.4901 73.6015 45.7727 73.5335 46.0769C72.3998 51.1506 68.6786 54.7199 63.1484 55.5167L62.5748 55.5993C62.3287 55.6348 62.1461 55.8456 62.1461 56.0942V61.8919C62.1461 62.1881 62.4021 62.4193 62.6967 62.3893L63.4377 62.3139C69.2034 61.7268 73.9358 59.0473 77.058 54.9794C77.2176 54.7715 77.5088 54.7143 77.7313 54.853L89.3567 62.0998C89.5946 62.2481 89.9079 62.1719 90.0511 61.9309L92.9781 57.0034ZM70.4461 63.5162C70.4461 63.5162 70.4461 63.5162 70.4461 63.5162V68.3759C70.4461 68.3759 70.4461 68.3759 70.4461 68.3759C70.4462 68.3759 70.4462 68.3759 70.4462 68.3759V63.5162C70.4462 63.5162 70.4462 63.5162 70.4461 63.5162ZM72.1176 76.7338C71.8415 76.7338 71.6176 76.5099 71.6176 76.2338V74.1252C71.6176 73.8491 71.8415 73.6252 72.1176 73.6252H94.1317C94.4079 73.6252 94.6317 73.8491 94.6317 74.1252V76.2338C94.6317 76.5099 94.4078 76.7338 94.1317 76.7338H72.1176ZM70.4461 72.4683C70.4462 72.4683 70.4462 72.4683 70.4462 72.4683V77.8907C70.4462 77.8907 70.4462 77.8907 70.4461 77.8907C70.4461 77.8907 70.4461 77.8907 70.4461 77.8907V72.4683C70.4461 72.4683 70.4461 72.4683 70.4461 72.4683ZM95.7075 61.6235H99.944C100.22 61.6235 100.444 61.3996 100.444 61.1235V38.9107L100.444 61.1235C100.444 61.3996 100.22 61.6235 99.9439 61.6235L95.7075 61.6235Z" fill="white"/>
</svg>
